<?xml version="1.0" standalone="no"?><!DOCTYPE svg PUBLIC "-//W3C//DTD SVG 1.1//EN" "http://www.w3.org/Graphics/SVG/1.1/DTD/svg11.dtd"><svg t="1586332195997" class="icon" viewBox="0 0 1024 1024" version="1.1" xmlns="http://www.w3.org/2000/svg" p-id="49336" xmlns:xlink="http://www.w3.org/1999/xlink" width="200" height="200"><defs><style type="text/css"></style></defs><path d="M512 0C229.361552 0 0 229.361552 0 512s229.361552 512 512 512S1024 794.638448 1024 512 794.638448 0 512 0z m-43.795414 433.890653c-7.223986-7.223986-16.705467-10.38448-28.444445-10.38448-12.190476 0-22.574956 3.611993-29.798942 11.287478-7.223986 7.675485-11.287478 18.059965-11.287478 31.153439l-26.638448-2.708995c1.805996-19.865961 8.578483-35.216931 20.317461-45.601411C404.091711 406.800705 419.89418 401.834215 440.21164 401.834215s36.119929 5.417989 47.858907 16.705468c11.738977 11.287478 17.608466 25.283951 17.608465 41.989418 0 8.578483-1.805996 16.705467-4.96649 24.832451-3.611993 8.126984-9.029982 16.705467-17.156966 25.73545-8.126984 9.029982-21.220459 21.220459-39.731923 37.022927-15.35097 13.093474-25.283951 22.123457-29.798942 26.638448s-8.126984 9.481481-10.835978 13.996473H505.679012v24.832452H367.068783c0-6.320988 0.902998-12.190476 3.160494-18.059965 3.611993-9.481481 9.029982-18.962963 17.156966-27.992945 7.675485-9.029982 18.962963-19.865961 33.862434-32.056438 23.026455-18.962963 38.377425-33.862434 46.504409-44.698413 8.126984-10.835979 12.190476-21.220459 12.190477-31.153439-0.902998-9.932981-4.514991-18.962963-11.738977-25.735449z m-237.488537 77.206349c0 158.024691 125.968254 285.798942 281.283951 286.250441v45.601411h-0.451499c-179.696649 0-325.530864-148.091711-325.530864-330.948854s145.834215-330.948854 325.530864-330.948854c135.449735 0 251.485009 83.978836 300.246913 203.626103h-47.407407c-46.05291-94.363316-141.770723-159.379189-252.388007-159.379189-154.864198 0-281.283951 127.77425-281.283951 285.798942z m356.684304 331.851852c-13.996473 0-25.283951-11.287478-25.283951-25.283951 0-13.996473 11.287478-25.283951 25.283951-25.283951 13.996473 0 25.283951 11.287478 25.28395 25.283951 0 13.544974-11.287478 25.283951-25.28395 25.283951z m54.631393-228.910053h-25.73545v-50.567902h-91.202822v-23.929453l96.169313-136.804233h21.220458v136.804233h28.444445v23.929453h-28.444445V614.038801z m45.149912 177.890652c-13.544974 0-24.832451-11.738977-24.832452-25.735449s11.287478-25.73545 24.832452-25.73545 24.832451 11.738977 24.832451 25.73545-10.835979 25.73545-24.832451 25.735449z m75.400353-76.75485c-13.544974 0-24.832451-11.287478-24.832452-25.28395 0-13.996473 11.287478-25.283951 24.832452-25.283951s24.832451 11.287478 24.832451 25.283951c0 13.996473-10.835979 25.283951-24.832451 25.28395z m50.116402-101.587301c-13.544974 0-24.832451-11.287478-24.832452-25.283951 0-13.996473 11.287478-25.283951 24.832452-25.283951s24.832451 11.287478 24.832451 25.283951c0 13.996473-11.287478 25.283951-24.832451 25.283951z m0-127.774251c-13.544974 0-24.832451-11.287478-24.832452-25.28395 0-13.996473 11.287478-25.283951 24.832452-25.283951s24.832451 11.287478 24.832451 25.283951c0 13.996473-11.287478 25.283951-24.832451 25.28395z" fill="#1296db" p-id="49337"></path><path d="M616.296296 539.541446V444.275132l-65.918871 95.266314z" fill="#1296db" p-id="49338"></path></svg>