<?xml version="1.0" standalone="no"?><!DOCTYPE svg PUBLIC "-//W3C//DTD SVG 1.1//EN" "http://www.w3.org/Graphics/SVG/1.1/DTD/svg11.dtd"><svg t="1586332246921" class="icon" viewBox="0 0 1024 1024" version="1.1" xmlns="http://www.w3.org/2000/svg" p-id="51009" id="mx_n_1586332246924" xmlns:xlink="http://www.w3.org/1999/xlink" width="200" height="200"><defs><style type="text/css"></style></defs><path d="M510.157624 591.727933H377.506526v-39.304028L433.500318 497.947365a293.479715 293.479715 0 0 0 29.333521-30.489523 66.325549 66.325549 0 0 0 10.259508-16.978762 36.125026 36.125026 0 0 0 2.601001-14.450011c0-0.65025 0-16.762012-23.625767-22.686516s-45.878784 9.898257-57.800042 28.17752l-27.67177-18.279263c22.253016-33.740775 59.895294-50.575037 93.925068-42.049531 38.437028 9.681507 48.696536 39.015029 48.696536 54.83779a68.7098 68.7098 0 0 1-5.274254 27.527271 99.560573 99.560573 0 0 1-15.244761 25.143018 320.645735 320.645735 0 0 1-32.079024 33.379524l-37.570027 36.125027h91.107317zM643.025471 591.727933h-33.379524V541.875397H526.702886v-45.445283l76.223806-120.224088H643.025471v132.651097h16.545262V541.875397H643.025471zM559.86566 508.857123h49.708036V427.575813L559.86566 505.75037z" fill="#2A5082" p-id="51010"></path><path d="M892.143653 507.990122a382.92528 382.92528 0 0 0-382.92528-381.98603 410.741551 410.741551 0 0 0-48.768786 3.106753V61.846045L325.125238 181.492133l135.324349 119.573838V227.804417a299.76547 299.76547 0 0 1 48.768786-4.335003A285.315459 285.315459 0 1 1 320.790235 296.225217l-65.025048-72.683553a381.98603 381.98603 0 1 0 636.667467 284.592958z" fill="#A3D4FF" p-id="51011"></path><path d="M510.157624 906.593664a398.459042 398.459042 0 0 1-265.735695-695.551259l12.354759-11.054259 87.494814 97.393072-12.427009 11.054258a267.325196 267.325196 0 1 0 177.30163-68.34855 258.293939 258.293939 0 0 0-32.151274 2.095251v95.73132L300.34347 181.492133 476.850349 24.998518v85.760813c11.126508-0.867001 21.675016-1.372751 32.151274-1.372751a398.603542 398.603542 0 1 1 1.011501 797.134834zM254.464686 247.095181a365.296268 365.296268 0 1 0 254.681437-104.545827 395.49679 395.49679 0 0 0-46.818034 2.962253l-18.568264 2.167501v-48.985536L350.340507 181.492133l93.491568 82.726311v-50.575038l13.94426-2.239751a313.42073 313.42073 0 0 1 51.442038-4.551753A301.932971 301.932971 0 1 1 297.670218 295.141466z" fill="#2A5082" p-id="51012"></path><path d="M510.157624 1014.462993a506.183871 506.183871 0 0 1-505.750371-505.75037h33.235025a473.021096 473.021096 0 0 0 472.515346 472.443096zM1015.763494 508.857123H982.60072A472.298596 472.298596 0 0 0 597.218937 44.361532l6.069005-32.584773a505.75037 505.75037 0 0 1 412.475552 497.080364zM512.975376 724.379031a222.313413 222.313413 0 0 1-158.227616-65.530798l23.409017-23.409018a190.88464 190.88464 0 0 0 269.637197 0l23.409018 23.409018a222.313413 222.313413 0 0 1-158.227616 65.530798zM766.717562 954.206449l-16.545263-28.900021a483.208354 483.208354 0 0 0 208.730403-243.771679L989.825725 693.600508a516.443378 516.443378 0 0 1-223.108163 260.605941z" fill="#BCC0C4" p-id="51013"></path></svg>