<?xml version="1.0" standalone="no"?><!DOCTYPE svg PUBLIC "-//W3C//DTD SVG 1.1//EN" "http://www.w3.org/Graphics/SVG/1.1/DTD/svg11.dtd"><svg t="1586332179279" class="icon" viewBox="0 0 1024 1024" version="1.1" xmlns="http://www.w3.org/2000/svg" p-id="49251" id="mx_n_1586332179283" xmlns:xlink="http://www.w3.org/1999/xlink" width="200" height="200"><defs><style type="text/css"></style></defs><path d="M511.98 293.226c-131.37 0-238.25 106.858-238.25 238.202 0 131.37 106.88 238.25 238.25 238.25s238.25-106.88 238.25-238.25c0.002-131.344-106.878-238.202-238.25-238.202z" fill="#71CCE0" p-id="49252"></path><path d="M511.982 143.696c-214.13 0-387.78 173.602-387.78 387.732 0 214.18 173.65 387.732 387.78 387.732 214.178 0 387.78-173.552 387.78-387.732 0-214.13-173.602-387.732-387.78-387.732z m0 650.408c-145.05 0-262.676-117.624-262.676-262.676s117.624-262.626 262.676-262.626 262.676 117.574 262.676 262.626c-0.002 145.05-117.626 262.676-262.676 262.676z" fill="#FFD452" p-id="49253"></path><path d="M511.982 794.104c-145.05 0-262.676-117.624-262.676-262.676s117.624-262.626 262.676-262.626 262.676 117.574 262.676 262.626c-0.002 145.05-117.626 262.676-262.676 262.676z m387.336-281.774c-9.68-199.218-169.74-358.984-369.106-368.176a374.412 374.412 0 0 0-36.374 0c-199.366 9.142-359.522 168.908-369.202 368.176-0.294 6.306-0.44 12.712-0.44 19.116 0 5.768 0.146 11.538 0.392 17.258 8.75 200.148 169.25 360.842 369.252 370.034a374.412 374.412 0 0 0 36.374 0c200.002-9.24 360.402-169.934 369.154-370.034 0.244-5.72 0.392-11.49 0.392-17.258a414.252 414.252 0 0 0-0.442-19.116z" fill="#FFD452" p-id="49254"></path><path d="M512 1024c-1.642 0-3.28-0.008-4.92-0.024l0.152-14.666c4.814 0.052 9.642 0.022 14.442-0.072l0.292 14.662c-3.318 0.066-6.638 0.1-9.966 0.1z m-19.774-0.382a512.974 512.974 0 0 1-14.862-0.806l1.012-14.632c4.79 0.332 9.6 0.594 14.428 0.782l-0.578 14.656z m44.608-0.23l-0.72-14.648c4.82-0.238 9.622-0.546 14.408-0.928l1.17 14.618c-4.936 0.398-9.886 0.716-14.858 0.958z m-74.3-1.826a512.252 512.252 0 0 1-14.784-1.688l1.882-14.548c4.762 0.616 9.546 1.162 14.354 1.64l-1.452 14.596z m103.966-0.524l-1.594-14.58c4.8-0.522 9.578-1.12 14.332-1.784l2.034 14.524a499.66 499.66 0 0 1-14.772 1.84z m-133.48-3.294a510.54 510.54 0 0 1-14.656-2.57l2.75-14.406c4.716 0.9 9.46 1.734 14.228 2.496l-2.322 14.48z m162.952-0.826l-2.464-14.456c4.756-0.812 9.488-1.692 14.198-2.642l2.898 14.376c-4.852 0.976-9.73 1.886-14.632 2.722z m-192.18-4.758a492.274 492.274 0 0 1-14.482-3.454l3.618-14.212c4.654 1.184 9.338 2.302 14.048 3.35l-3.184 14.316z m221.354-1.126l-3.332-14.284c4.698-1.096 9.368-2.26 14.01-3.494l3.766 14.174a494.514 494.514 0 0 1-14.444 3.604z m-250.204-6.216a495.964 495.964 0 0 1-14.242-4.324l4.468-13.97a473.06 473.06 0 0 0 13.82 4.194l-4.046 14.1z m278.976-1.424l-4.192-14.056a476.912 476.912 0 0 0 13.778-4.336l4.612 13.922c-4.702 1.56-9.436 3.05-14.198 4.47z m-307.322-7.648a482.874 482.874 0 0 1-13.96-5.176l5.308-13.674c4.48 1.74 8.994 3.414 13.54 5.022l-4.888 13.828z m335.62-1.732l-5.032-13.774a492.448 492.448 0 0 0 13.526-5.176l5.448 13.616a493.22 493.22 0 0 1-13.942 5.334z m-363.32-9.018a487.626 487.626 0 0 1-13.582-5.99l6.12-13.33c4.356 2 8.746 3.938 13.172 5.808l-5.71 13.512z m391.03-2.072l-5.858-13.444c4.428-1.932 8.82-3.924 13.176-5.982l6.268 13.258a472.468 472.468 0 0 1-13.586 6.168z m-418.01-10.312a509.6 509.6 0 0 1-13.196-6.796l6.908-12.938a477.16 477.16 0 0 0 12.81 6.596l-6.522 13.138z m444.986-2.424l-6.66-13.068a477.466 477.466 0 0 0 12.788-6.76l7.052 12.856a486.55 486.55 0 0 1-13.18 6.972z m-471.178-11.566a514.172 514.172 0 0 1-12.774-7.576l7.668-12.504a475.636 475.636 0 0 0 12.402 7.358l-7.296 12.722z m497.322-2.766l-7.434-12.642a462.606 462.606 0 0 0 12.35-7.518l7.816 12.412a497.22 497.22 0 0 1-12.732 7.748z m-522.648-12.776a504.114 504.114 0 0 1-12.3-8.33l8.402-12.022a490.25 490.25 0 0 0 11.942 8.092l-8.044 12.26z m547.872-3.096l-8.184-12.174a475.246 475.246 0 0 0 11.878-8.242l8.542 11.922a514.218 514.218 0 0 1-12.236 8.494z m-572.23-13.94a517.064 517.064 0 0 1-11.786-9.056l9.11-11.496a487.416 487.416 0 0 0 11.442 8.794l-8.766 11.758z m596.442-3.408l-8.894-11.664a476.312 476.312 0 0 0 11.358-8.934l9.238 11.392a497.244 497.244 0 0 1-11.702 9.206z m-619.74-15.06a490.472 490.472 0 0 1-11.234-9.746l9.778-10.932a484.3 484.3 0 0 0 10.9 9.46l-9.444 11.218z m642.866-3.7l-9.572-11.11a472.452 472.452 0 0 0 10.796-9.592l9.906 10.814a479.38 479.38 0 0 1-11.13 9.888z m-665.042-16.13a496.634 496.634 0 0 1-10.632-10.404l10.408-10.332a491.42 491.42 0 0 0 10.322 10.098l-10.098 10.638z m687-3.968l-10.222-10.518a496.788 496.788 0 0 0 10.208-10.22l10.528 10.212a506.54 506.54 0 0 1-10.514 10.526zM149.608 866.62a497.31 497.31 0 0 1-10-11.026l11.014-9.686a481.484 481.484 0 0 0 9.704 10.702l-10.718 10.01z m728.668-4.204l-10.828-9.892a480.64 480.64 0 0 0 9.574-10.802l11.12 9.562a500.074 500.074 0 0 1-9.866 11.132zM129.94 844.274a507.532 507.532 0 0 1-9.324-11.606l11.568-9.014a485.72 485.72 0 0 0 9.052 11.268l-11.296 9.352z m767.73-4.408l-11.4-9.228a481.778 481.778 0 0 0 8.908-11.348l11.672 8.88a512.932 512.932 0 0 1-9.18 11.696z m-786.032-19.08a484.366 484.366 0 0 1-8.62-12.15l12.088-8.302a489.44 489.44 0 0 0 8.362 11.788l-11.83 8.664z m804.038-4.58l-11.93-8.532a469.646 469.646 0 0 0 8.21-11.856l12.184 8.168a506.372 506.372 0 0 1-8.464 12.22z m-820.912-19.974a493.06 493.06 0 0 1-7.878-12.646l12.56-7.568a487.968 487.968 0 0 0 7.648 12.274l-12.33 7.94z m837.47-4.71l-12.422-7.796a488.044 488.044 0 0 0 7.486-12.324l12.646 7.428a504.2 504.2 0 0 1-7.71 12.692zM79.388 770.7a491.912 491.912 0 0 1-7.106-13.108l12.996-6.794a483.464 483.464 0 0 0 6.896 12.716l-12.786 7.186z m867.886-4.792l-12.866-7.042a468.292 468.292 0 0 0 6.726-12.74l13.072 6.65a497.19 497.19 0 0 1-6.932 13.132zM65.566 744.27a488.764 488.764 0 0 1-6.306-13.518l13.384-5.996c1.976 4.408 4.018 8.78 6.118 13.112l-13.196 6.402z m895.174-4.824l-13.262-6.258a471.548 471.548 0 0 0 5.944-13.11l13.448 5.854a505.146 505.146 0 0 1-6.13 13.514z m-907.378-22.4a496.26 496.26 0 0 1-5.478-13.882l13.722-5.18c1.706 4.526 3.48 9.016 5.316 13.47l-13.56 5.592z m919.226-4.804l-13.616-5.452a479.284 479.284 0 0 0 5.164-13.484l13.774 5.032a475.658 475.658 0 0 1-5.322 13.904zM42.83 689.124a482.528 482.528 0 0 1-4.636-14.204l14.012-4.334a467.09 467.09 0 0 0 4.492 13.774l-13.868 4.764z m939.976-4.842l-13.922-4.612a487.694 487.694 0 0 0 4.338-13.778l14.056 4.192a498.28 498.28 0 0 1-4.472 14.198zM34.014 660.638a475.532 475.532 0 0 1-3.754-14.408l14.246-3.48a476.876 476.876 0 0 0 3.64 13.972l-14.132 3.916z m957.302-4.876l-14.174-3.766a477.832 477.832 0 0 0 3.5-14.012l14.28 3.338a504.092 504.092 0 0 1-3.606 14.44zM26.944 631.72a504.98 504.98 0 0 1-2.876-14.604l14.432-2.616c0.86 4.748 1.79 9.47 2.79 14.17l-14.346 3.05z m971.136-4.942l-14.376-2.902a486.84 486.84 0 0 0 2.644-14.2l14.456 2.474c-0.836 4.9-1.744 9.776-2.724 14.628zM21.636 602.434a484.06 484.06 0 0 1-1.99-14.75l14.562-1.742c0.576 4.79 1.218 9.56 1.934 14.31l-14.506 2.182z m981.452-4.994l-14.524-2.034c0.664-4.756 1.26-9.532 1.786-14.332l14.58 1.6a491.03 491.03 0 0 1-1.842 14.766zM18.102 572.892a497.274 497.274 0 0 1-1.108-14.846l14.642-0.872c0.286 4.82 0.642 9.622 1.074 14.404l-14.608 1.314z m988.224-5.038l-14.618-1.156c0.378-4.786 0.688-9.594 0.928-14.42l14.648 0.728a497.284 497.284 0 0 1-0.958 14.848zM16.33 543.186a503.912 503.912 0 0 1-0.224-14.878l14.666-0.004c0.002 4.83 0.076 9.644 0.22 14.444l-14.662 0.438z m991.466-5.054l-14.662-0.286a489.298 489.298 0 0 0 0.07-14.446l14.666-0.152a497.986 497.986 0 0 1-0.074 14.884zM30.978 513.858l-14.662-0.434c0.148-4.972 0.368-9.928 0.656-14.864l14.642 0.864a484.796 484.796 0 0 0-0.636 14.434z m961.872-4.904a470.708 470.708 0 0 0-0.78-14.422l14.634-1.012c0.342 4.936 0.608 9.89 0.804 14.862l-14.658 0.572zM32.678 485.016l-14.61-1.298c0.442-4.956 0.954-9.89 1.54-14.8l14.564 1.734a477.546 477.546 0 0 0-1.494 14.364z m958.186-4.88c-0.476-4.802-1.02-9.584-1.638-14.346l14.542-1.886c0.638 4.908 1.2 9.84 1.69 14.79l-14.594 1.442zM36.094 456.34l-14.504-2.172c0.736-4.92 1.544-9.816 2.426-14.686l14.432 2.606a483.114 483.114 0 0 0-2.354 14.252z m951.064-4.846a480.632 480.632 0 0 0-2.496-14.22l14.404-2.76a484.7 484.7 0 0 1 2.574 14.664l-14.482 2.316zM41.222 427.916l-14.346-3.036a483.398 483.398 0 0 1 3.304-14.516l14.252 3.476a472.686 472.686 0 0 0-3.21 14.076z m940.514-4.786a462.954 462.954 0 0 0-3.352-14.048l14.212-3.624c1.224 4.8 2.376 9.63 3.456 14.482l-14.316 3.19zM48.06 399.858l-14.136-3.9a484.8 484.8 0 0 1 4.178-14.286l14.012 4.326a479.768 479.768 0 0 0-4.054 13.86z m926.55-4.714a476.214 476.214 0 0 0-4.208-13.866l13.97-4.468c1.514 4.732 2.96 9.494 4.338 14.286l-14.1 4.048zM56.58 372.27l-13.874-4.756a501.528 501.528 0 0 1 5.032-14.006l13.726 5.166a476.964 476.964 0 0 0-4.884 13.596z m909.196-4.72a485.69 485.69 0 0 0-5.04-13.576l13.668-5.314c1.802 4.634 3.536 9.3 5.196 13.996l-13.824 4.894zM66.738 345.282l-13.564-5.582a508.36 508.36 0 0 1 5.85-13.64l13.392 5.982a482.48 482.48 0 0 0-5.678 13.24z m888.556-4.718a480.86 480.86 0 0 0-5.848-13.236l13.324-6.13a500.94 500.94 0 0 1 6.026 13.642l-13.502 5.724z m-876.8-21.586l-13.206-6.384a495.004 495.004 0 0 1 6.664-13.27l13.004 6.774a486.706 486.706 0 0 0-6.462 12.88z m864.704-4.708a477.854 477.854 0 0 0-6.634-12.854l12.928-6.922a492.704 492.704 0 0 1 6.84 13.25l-13.134 6.526zM91.81 293.42l-12.794-7.166a492.434 492.434 0 0 1 7.452-12.852l12.576 7.548a477.98 477.98 0 0 0-7.234 12.47z m837.734-4.656a475.894 475.894 0 0 0-7.39-12.428l12.49-7.686a495.32 495.32 0 0 1 7.62 12.81l-12.72 7.304zM106.65 268.692l-12.346-7.92a488.044 488.044 0 0 1 8.214-12.386l12.098 8.288a464.47 464.47 0 0 0-7.966 12.018z m807.738-4.556a488.544 488.544 0 0 0-8.126-11.958l12.008-8.422c2.848 4.06 5.64 8.168 8.37 12.32l-12.252 8.06z m-791.44-19.246l-11.85-8.646a497.856 497.856 0 0 1 8.942-11.878l11.582 8.994a479.23 479.23 0 0 0-8.674 11.53z m774.838-4.42a486.07 486.07 0 0 0-8.822-11.45l11.486-9.118a511.094 511.094 0 0 1 9.086 11.79l-11.75 8.778z m-757.144-18.38l-11.31-9.338a504.148 504.148 0 0 1 9.636-11.326l11.028 9.668a485.256 485.256 0 0 0-9.354 10.996z m739.16-4.244a490.518 490.518 0 0 0-9.486-10.898l10.918-9.792a497.488 497.488 0 0 1 9.772 11.226l-11.204 9.464z m-720.126-17.47l-10.728-9.998a501.02 501.02 0 0 1 10.296-10.732l10.432 10.308a501.462 501.462 0 0 0-10 10.422z m700.83-4.038a491.508 491.508 0 0 0-10.114-10.308l10.312-10.426a487.904 487.904 0 0 1 10.424 10.622l-10.622 10.112zM179.982 179.834L169.86 169.22a483.3 483.3 0 0 1 10.926-10.11l9.796 10.914a481.682 481.682 0 0 0-10.6 9.81z m659.988-3.802a476.28 476.28 0 0 0-10.708-9.68l9.668-11.028a495.892 495.892 0 0 1 11.038 9.976l-9.998 10.732z m-638.488-15.502l-9.472-11.2a493.616 493.616 0 0 1 11.514-9.442l9.128 11.478a481.948 481.948 0 0 0-11.17 9.164z m616.782-3.54a474.686 474.686 0 0 0-11.262-9.018l8.994-11.588a485.924 485.924 0 0 1 11.61 9.3l-9.342 11.306zM224.092 142.54l-8.78-11.744a490.672 490.672 0 0 1 12.06-8.74l8.426 12.002a499.244 499.244 0 0 0-11.706 8.482z m571.382-3.254a491.852 491.852 0 0 0-11.78-8.332l8.292-12.098a492.72 492.72 0 0 1 12.134 8.584l-8.646 11.846zM247.76 125.928l-8.068-12.246c4.146-2.734 8.336-5.4 12.57-8.008l7.692 12.49a474.046 474.046 0 0 0-12.194 7.764z m523.914-2.952a486.506 486.506 0 0 0-12.248-7.608l7.548-12.576a488.63 488.63 0 0 1 12.626 7.842l-7.926 12.342zM272.376 110.76l-7.31-12.714a496.888 496.888 0 0 1 13.028-7.236l6.928 12.928a485.86 485.86 0 0 0-12.646 7.022z m474.578-2.626a485.974 485.974 0 0 0-12.678-6.858l6.788-13a503.256 503.256 0 0 1 13.06 7.064l-7.17 12.794z m-449.078-11.036l-6.532-13.13a485.38 485.38 0 0 1 13.45-6.442l6.134 13.322a491.37 491.37 0 0 0-13.052 6.25zM721.4 94.804a477.37 477.37 0 0 0-13.052-6.076l5.982-13.392a481.42 481.42 0 0 1 13.464 6.266l-6.394 13.202z m-397.23-9.808l-5.734-13.502c4.572-1.94 9.18-3.814 13.826-5.62l5.314 13.668a475.672 475.672 0 0 0-13.406 5.454z m370.938-1.956a470.02 470.02 0 0 0-13.394-5.28l5.17-13.726c4.636 1.748 9.238 3.564 13.804 5.442l-5.58 13.564z m-343.954-8.54l-4.908-13.822c4.684-1.664 9.4-3.256 14.148-4.776l4.478 13.964a474.04 474.04 0 0 0-13.718 4.634z m316.97-1.626a484.538 484.538 0 0 0-13.73-4.476l4.336-14.012c4.748 1.468 9.464 3.008 14.15 4.614l-4.756 13.874z m-289.392-7.226l-4.054-14.094a493.276 493.276 0 0 1 14.368-3.898l3.624 14.212a478.17 478.17 0 0 0-13.938 3.78z m261.802-1.308a477.136 477.136 0 0 0-13.976-3.64l3.48-14.246c4.83 1.18 9.632 2.43 14.406 3.75l-3.91 14.136z m-233.812-5.828l-3.204-14.314a481.45 481.45 0 0 1 14.58-3.024l2.76 14.404c-4.738 0.908-9.452 1.886-14.136 2.934z m205.762-1.02a484.824 484.824 0 0 0-14.174-2.788l2.622-14.432c4.894 0.89 9.758 1.848 14.6 2.874l-3.048 14.346z m-177.4-4.414l-2.334-14.48c4.888-0.788 9.8-1.5 14.73-2.142l1.896 14.542c-4.788 0.624-9.55 1.316-14.292 2.08z m148.978-0.734c-4.748-0.714-9.52-1.358-14.316-1.934l1.748-14.562c4.938 0.594 9.854 1.258 14.746 1.99l-2.178 14.506zM454.982 615.918h-102.152a7.334 7.334 0 0 1-7.334-7.334v-25.174c0-1.986 0.804-3.886 2.232-5.268l92.608-89.682v-24.406c0-22.104-17.982-40.09-40.086-40.09s-40.086 17.982-40.086 40.086v27.514h-14.666v-27.514c0-30.192 24.562-54.754 54.754-54.754 30.19 0 54.754 24.564 54.754 54.756v27.512c0 1.986-0.804 3.886-2.232 5.268l-92.608 89.682v14.736h94.818v14.668zM558.364 531.432h-78.62a7.334 7.334 0 0 1-7.334-7.334v-18.97c0-1.796 0.658-3.528 1.85-4.87l78.62-88.492 10.966 9.74-76.77 86.412v8.848h71.286v14.666z" fill="#4A555F" p-id="49255"></path><path d="M551.032 459.856h14.666v150.94h-14.666zM645.612 611.76h-14.666v-28.788a12.582 12.582 0 0 0-12.568-12.568h-10.962v40.392h-14.666v-91.388h14.666v36.33h10.962c15.018 0 27.234 12.218 27.234 27.234v28.788zM675.938 610.796h-14.666v-56.042h14.666v3.704a33.702 33.702 0 0 1 16.604-4.376h10.382v14.666h-10.382a19.05 19.05 0 0 0-14.26 6.424l-2.344 2.648v32.976zM456.048 89.562l-12.17-8.184 28.04-41.71-39.554-27.646L440.766 0l45.458 31.772a7.332 7.332 0 0 1 1.884 10.102l-32.06 47.688zM189.658 556.038H124.588a7.332 7.332 0 0 1-7.326-7.02 410.62 410.62 0 0 1-0.398-17.572c0-6.502 0.15-13.05 0.448-19.458a7.336 7.336 0 0 1 7.326-6.992h65.02a7.334 7.334 0 0 1 7.334 7.334v36.374a7.332 7.332 0 0 1-7.334 7.334z m-57.99-14.666h50.656v-21.708H131.7a412.654 412.654 0 0 0-0.17 11.782c0 3.202 0.046 6.488 0.138 9.926zM899.366 556.038h-64.922a7.334 7.334 0 0 1-7.334-7.334v-36.374a7.334 7.334 0 0 1 7.334-7.334h64.874a7.334 7.334 0 0 1 7.326 6.994c0.296 6.424 0.446 12.97 0.446 19.454 0 5.528-0.132 11.274-0.398 17.572a7.332 7.332 0 0 1-7.326 7.022z m-57.588-14.666h50.508c0.094-3.438 0.138-6.722 0.138-9.926 0-3.92-0.058-7.86-0.17-11.782h-50.478v21.708zM530.214 215.432H493.84a7.334 7.334 0 0 1-7.334-7.334V144.156a7.332 7.332 0 0 1 6.972-7.324 383.114 383.114 0 0 1 37.096 0 7.33 7.33 0 0 1 6.972 7.324v63.944a7.332 7.332 0 0 1-7.332 7.332z m-29.042-14.666h21.708v-49.56a365.38 365.38 0 0 0-21.708 0v49.56zM511.978 926.51c-6.202 0-12.424-0.15-18.5-0.452a7.33 7.33 0 0 1-6.972-7.324v-65.804a7.334 7.334 0 0 1 7.334-7.334h36.374a7.334 7.334 0 0 1 7.334 7.334v65.804a7.332 7.332 0 0 1-6.972 7.324c-6.074 0.302-12.332 0.452-18.598 0.452z m-10.806-14.826c7.218 0.218 14.548 0.214 21.708 0v-51.418h-21.708v51.418zM296.242 209.114l12.328-7.942 35.01 54.338-12.328 7.942zM680.464 805.48l12.328-7.944 35.824 55.6-12.328 7.944zM167.448 353.222l6.952-12.914 57.276 30.834-6.952 12.914zM792.42 689.688l6.954-12.914 58.034 31.24-6.952 12.914zM295.436 853.192l35.86-55.646 12.326 7.944-35.86 55.646zM680.488 255.492l34.984-54.288 12.328 7.944-34.984 54.288zM166.702 708.19l58.048-31.248 6.952 12.914-58.048 31.248zM792.408 371.334l57.264-30.826 6.952 12.912-57.264 30.828z" fill="#4A555F" p-id="49256"></path></svg>