<?xml version="1.0" standalone="no"?><!DOCTYPE svg PUBLIC "-//W3C//DTD SVG 1.1//EN" "http://www.w3.org/Graphics/SVG/1.1/DTD/svg11.dtd"><svg t="1586332029191" class="icon" viewBox="0 0 1024 1024" version="1.1" xmlns="http://www.w3.org/2000/svg" p-id="37620" data-spm-anchor-id="a313x.7781069.0.i26" xmlns:xlink="http://www.w3.org/1999/xlink" width="200" height="200"><defs><style type="text/css"></style></defs><path d="M854.191752 725.845413 854.191752 725.845413l-82.602614-82.618673 82.602614-82.598206 0 0c0.88929-0.887206 1.537069-1.928932 1.911614-3.053546 1.162523-3.004427 0.546468-6.553253-1.911614-8.978489l-39.045848-39.027875c-2.425335-2.457981-5.97533-3.090385-8.978856-1.945305-1.125683 0.390903-2.150054 1.059122-3.036274 1.945305l0 0-82.603637 82.614579L637.886658 509.567601l0 0c-0.887243-0.886183-1.944361-1.554402-3.037297-1.945305-3.003527-1.125637-6.553521-0.512676-9.012627 1.945305l-39.015147 39.027875c-2.457059 2.425236-3.104838 5.975085-1.944361 8.978489 0.409339 1.125637 1.059165 2.166339 1.944361 3.053546l0 0 82.639455 82.598206-82.639455 82.618673 0 0c-0.885196 0.88516-1.535022 1.926886-1.944361 3.051499-1.125683 3.003404-0.512697 6.553253 1.944361 8.978489l39.015147 39.031968c2.458082 2.453888 6.0091 3.086291 9.012627 1.945305 1.091912-0.396019 2.150054-1.060145 3.037297-1.945305l0 0 82.639455-82.618673 82.603637 82.618673 0 0c0.886219 0.88516 1.910591 1.550309 3.036274 1.945305 3.00455 1.124614 6.553521 0.508583 8.978856-1.945305l39.045848-39.031968c2.458082-2.425236 3.074138-5.976108 1.911614-8.978489C855.728821 727.772298 855.081041 726.730573 854.191752 725.845413z" p-id="37621" fill="#1afa29"></path><path d="M720.492342 363.625718c-154.418116 0-279.618619 125.19435-279.618619 279.609209 0 154.414859 125.201527 279.609209 279.618619 279.609209 154.421186 0 279.624759-125.19435 279.624759-279.609209C1000.117101 488.821091 874.914551 363.625718 720.492342 363.625718zM720.492342 870.420159c-125.472714 0-227.191471-101.71459-227.191471-227.183186 0-125.470643 101.717734-227.183186 227.191471-227.183186 125.476807 0 227.197611 101.712543 227.197611 227.183186C947.689953 768.70557 845.96915 870.420159 720.492342 870.420159z" p-id="37622" fill="#1afa29"></path><path d="M455.648824 832.768631l0 6.91448L287.829964 839.683111l0 55.936987 226.864 0C492.354274 877.382735 472.47983 856.242252 455.648824 832.768631z" p-id="37623" fill="#1afa29"></path><path d="M396.086893 671.872151 165.717926 671.872151 165.717926 225.39854l691.73933 0 0 122.317837c38.572038 17.907858 73.046589 43.138496 101.645076 73.913407L959.102332 127.850853 64.07285 127.850853l0 638.499066 354.852103 0C406.838188 736.77944 398.977851 705.039551 396.086893 671.872151z" p-id="37624" fill="#1afa29"></path></svg>