<?xml version="1.0" standalone="no"?><!DOCTYPE svg PUBLIC "-//W3C//DTD SVG 1.1//EN" "http://www.w3.org/Graphics/SVG/1.1/DTD/svg11.dtd"><svg t="1586331964213" class="icon" viewBox="0 0 1024 1024" version="1.1" xmlns="http://www.w3.org/2000/svg" p-id="34221" id="mx_n_1586331964220" data-spm-anchor-id="a313x.7781069.0.i23" xmlns:xlink="http://www.w3.org/1999/xlink" width="200" height="200"><defs><style type="text/css"></style></defs><path d="M358.249617 800.345178H143.29839v81.443594H380.461506a354.445043 354.445043 0 0 0 59.979978 97.984363H56.341206a49.622306 49.622306 0 0 1-52.654781-48.992181v-228.420139h353.736153a357.831962 357.831962 0 0 0 0.827039 97.984363z m621.460309-280.759857A354.602574 354.602574 0 0 0 372.348653 636.867247H3.725808L0.023827 359.49431h979.686099v160.091011z m-197.189593-339.479586c22.014975-1.890374 38.988955-20.163985 39.185869-42.257726a44.699458 44.699458 0 0 0-45.2902-39.185868 44.108716 44.108716 0 0 0-41.627601 42.257725 44.699458 44.699458 0 0 0 47.731932 39.185869z m-139.572581 0a40.406735 40.406735 0 0 0 41.627601-42.848467 44.699458 44.699458 0 0 0-82.034336-17.761635 38.595127 38.595127 0 0 0 0 41.036859c9.333719 12.838787 24.496091 20.163985 40.406735 19.573243zM143.29839 98.110782v82.034336h244.921524V98.110782H143.29839zM908.072644 0.047653A74.079014 74.079014 0 0 1 984.593391 68.691843V278.090098H4.907292V68.691843A71.637281 71.637281 0 0 1 78.395564 0.047653h829.67708zM143.29839 457.478673v81.443594h244.921524v-81.443594H143.29839z" fill="#1afa29" p-id="34222"></path><path d="M709.740951 1018.880238a275.679478 275.679478 0 1 1 0-551.358956 275.679478 275.679478 0 0 1 0 551.358956z m-93.612874-140.675299l1.811608-0.433211a13.902122 13.902122 0 0 0 6.852604-3.662598l1.181484-1.181484 82.113101-82.113102 1.181484-1.1421c0.315062 0.472593 0.551359 0.905804 0.905804 1.260249l82.506929 82.546312a15.00484 15.00484 0 0 0 7.994705 4.410872c0.354445 0.039383 0.669507 0.196914 1.023953 0.315062h2.638646c0.472593-0.118148 0.905804-0.315062 1.378397-0.393828a14.177802 14.177802 0 0 0 7.522112-4.095809l11.539155-11.578538 17.643487-17.604104a13.902122 13.902122 0 0 0 3.898895-6.695073l0.393828-2.244819v-2.441732c-0.039383-0.236297-0.157531-0.433211-0.157531-0.669508a12.60249 12.60249 0 0 0-3.386919-7.482728c-0.511976-0.590742-1.063335-1.102718-1.614694-1.654077l-81.876805-81.837422-1.260249-1.339015c0.433211-0.315062 0.866421-0.551359 1.181483-0.905804l82.703843-82.625078a14.453481 14.453481 0 0 0 4.017044-6.891987l0.393828-2.087287v-2.678029l-0.196914-0.551359a12.799404 12.799404 0 0 0-3.426302-7.561495l-0.590742-0.590741-29.458321-29.418939a14.020271 14.020271 0 0 0-7.088901-3.938278l-1.614694-0.315063h-2.441732l-1.772226 0.393828a13.980888 13.980888 0 0 0-6.931369 3.701982l-1.260249 1.299632c-27.252886 27.17412-54.466388 54.427006-81.719274 81.679891l-1.102718 1.260249c-0.472593-0.472593-0.866421-0.787656-1.181484-1.181484a204209.967152 204209.967152 0 0 0-82.310015-82.310015 22.290655 22.290655 0 0 0-2.953709-2.481116 12.287428 12.287428 0 0 0-5.828652-2.166053c-0.236297 0-0.472593-0.118148-0.70889-0.196914h-2.40235l-1.890373 0.393828a13.193232 13.193232 0 0 0-6.576925 3.623216l-29.970297 29.930915a13.665826 13.665826 0 0 0-3.741365 7.207049c-0.078766 0.393828-0.315062 0.787656-0.472593 1.220867v2.678029c0.157531 0.393828 0.393828 0.787656 0.472593 1.181483a13.902122 13.902122 0 0 0 3.780747 7.325198l1.181484 1.181483 81.95557 81.955571c0.315062 0.315062 0.70889 0.551359 1.142101 0.945187l-1.181483 1.181483-81.679891 81.719274-1.299632 1.299632a13.783974 13.783974 0 0 0-3.938279 7.482728c-0.078766 0.393828-0.275679 0.787656-0.43321 1.220867v2.441732c0.157531 0.393828 0.393828 0.787656 0.43321 1.220866 0.551359 2.993091 1.929756 5.51359 4.09581 7.679643l21.266702 21.266703c2.520498 2.520498 5.040996 5.001613 7.482729 7.522111 2.362967 2.441733 5.119762 4.056427 8.467298 4.647168 0.315062 0.039383 0.590742 0.196914 0.905804 0.27568h2.40235z" fill="#1afa29" p-id="34223"></path></svg>