<?xml version="1.0" standalone="no"?><!DOCTYPE svg PUBLIC "-//W3C//DTD SVG 1.1//EN" "http://www.w3.org/Graphics/SVG/1.1/DTD/svg11.dtd"><svg t="1586331891004" class="icon" viewBox="0 0 1754 1024" version="1.1" xmlns="http://www.w3.org/2000/svg" p-id="31242" id="mx_n_1586331891008" data-spm-anchor-id="a313x.7781069.0.i18" xmlns:xlink="http://www.w3.org/1999/xlink" width="342.578125" height="200"><defs><style type="text/css"></style></defs><path d="M1241.444682 0.730906h-730.906495c-80.399714 0-146.181299 65.781585-146.181299 146.1813v730.906495c0 80.399714 65.781585 146.181299 146.181299 146.181299h730.906495c80.399714 0 146.181299-65.781585 146.181299-146.181299v-730.906495c0-80.399714-65.781585-146.181299-146.181299-146.1813zM572.482512 407.663098c-6.760885 6.943612-16.079943 10.780871-25.764453 10.598144-14.61813 0-27.957173-8.953605-33.438973-22.475375-5.664525-13.52177-2.558173-29.23626 7.857245-39.651677 24.302641-24.485368 51.163455-46.229836 80.034261-65.233405l52.625268 52.990721c-28.870807 17.541756-55.914347 38.555318-80.947894 63.406139l-0.365454 0.365453z m69.618844 128.82227c-12.608137-3.289079-22.292648-13.156317-25.764454-25.764454-3.289079-12.608137 0.182727-25.947181 9.319058-35.083512 27.226267-27.226267 58.47252-49.884368 93.007852-67.060671l55.18344 55.366167c-36.362598 14.06995-69.25339 35.631692-96.662384 63.223412-9.136331 9.136331-22.475375 12.790864-35.083512 9.319058z m234.803712 279.206281c-27.774447 0-50.249822-22.475375-50.249822-50.067095 0-13.339044 5.299072-26.129907 14.61813-35.631692 9.319058-9.684511 22.109921-14.800857 35.448965-14.800856 27.774447 0 50.249822 22.475375 50.249822 50.249821s-22.475375 50.249822-50.067095 50.249822z m-94.469665-162.078516c-6.760885 6.943612-16.079943 10.780871-25.581727 10.598145-14.61813 0-27.957173-8.953605-33.621699-22.475375-5.664525-13.52177-2.558173-29.23626 7.857245-39.651677 32.890792-32.890792 76.014276-53.721627 122.244111-59.0207l87.526053 88.074233c-51.894361-28.505353-116.396859-19.369022-158.423983 22.475374z m299.85439 24.668095c-5.299072 5.481799-12.608137 8.588151-20.099929 8.588151-7.674518 0-14.800857-3.106353-20.099928-8.588151L622.184154 258.375446c-11.511777-11.694504-11.511777-30.33262 0-42.027123 11.694504-9.501784 28.505353-9.501784 40.199857 0l221.464669 221.647394 120.234118 120.234119 53.356174 53.356174 24.850821 26.49536c5.481799 5.299072 8.588151 12.608137 8.588151 20.099929 0 7.674518-3.106353 14.800857-8.588151 20.099929z m51.711635-162.809422c-5.664525 13.52177-18.820842 22.475375-33.438973 22.475375-9.684511 0-19.003569-3.837259-25.764454-10.598145-32.890792-33.073519-73.638829-57.37616-118.224125-70.715203l-84.602427-84.602427c95.017844-1.09636 186.563883 36.179872 253.80728 103.423269 0 0 0.182727 0.365453 0.365454 0.365453 10.415418 10.415418 13.52177 25.947181 7.857245 39.651678z m96.662384-107.625982c-6.760885 6.760885-15.897216 10.598144-25.581728 10.598145-9.684511 0-19.003569-3.837259-25.764454-10.598145-101.596003-101.961456-247.594575-145.998572-388.842255-117.127765l-59.934333-59.934333c176.879372-53.538901 368.925054-5.481799 499.57459 125.167737l0.54818 0.54818c14.06995 14.252677 14.06995 37.276231 0 51.346181z" fill="#1afa29" p-id="31243" data-spm-anchor-id="a313x.7781069.0.i17" class=""></path></svg>